<?xml version='1.0' encoding='UTF-8' standalone='no'?>
<!-- Created with Fritzing (http://www.fritzing.org/) -->
<svg xmlns:svg='http://www.w3.org/2000/svg' xmlns='http://www.w3.org/2000/svg' version='1.2' baseProfile='tiny' x='0in' y='0in' width='4.82764in' height='2.52722in' viewBox='0 0 347.59 181.96' >
<g partID='58920'><g transform='translate(116.431,115.993)' ><g transform='matrix(-1,0,0,-1,0,0)'  ><g id="schematic">
<path stroke-width="0.9" d="M0.36,29.016c0,3.978,3.224,7.2,7.2,7.2l0,0l7.199,0l0,0c3.978,0,7.2,-3.223,7.2,-7.2l0,-14.4c0,-3.977,-3.223,-7.2,-7.2,-7.2l0,0L7.56,7.416l0,0c-3.976,0,-7.2,3.223,-7.2,7.2L0.36,29.016z" fill="#FFFFFF" stroke="#000000"/>
<line stroke-width="0.5" x1="7.56" stroke-linecap="round" x2="11.16" y2="11.016" fill="none" stroke="#000000" y1="7.416"/>
<line stroke-width="0.5" x1="21.959" stroke-linecap="round" x2="18.359" y2="18.216" fill="none" stroke="#000000" y1="21.816"/>
<line stroke-width="0.5" x1="11.16" stroke-linecap="round" x2="9.72" y2="13.896" fill="none" stroke="#000000" y1="11.016"/>
<line stroke-width="0.5" x1="15.48" stroke-linecap="round" x2="9.72" y2="13.896" fill="none" stroke="#000000" y1="11.016"/>
<line stroke-width="0.5" x1="12.6" stroke-linecap="round" x2="15.48" y2="11.016" fill="none" stroke="#000000" y1="16.776"/>
<line stroke-width="0.5" x1="18.359" stroke-linecap="round" x2="12.6" y2="16.776" fill="none" stroke="#000000" y1="13.896"/>
<line stroke-width="0.5" x1="15.48" stroke-linecap="round" x2="18.359" y2="13.896" fill="none" stroke="#000000" y1="19.656"/>
<line stroke-width="0.5" x1="15.48" stroke-linecap="round" x2="18.359" y2="18.216" fill="none" stroke="#000000" y1="19.656"/>
<line stroke-width="0.5" x1="21.959" stroke-linecap="round" x2="18.359" y2="25.416" fill="none" stroke="#000000" y1="21.816"/>
<line stroke-width="0.5" x1="7.56" stroke-linecap="round" x2="11.16" y2="32.617" fill="none" stroke="#000000" y1="36.216"/>
<line stroke-width="0.5" x1="18.359" stroke-linecap="round" x2="19.799" y2="28.296" fill="none" stroke="#000000" y1="25.416"/>
<line stroke-width="0.5" x1="14.04" stroke-linecap="round" x2="19.799" y2="28.296" fill="none" stroke="#000000" y1="25.416"/>
<line stroke-width="0.5" x1="16.92" stroke-linecap="round" x2="14.04" y2="25.416" fill="none" stroke="#000000" y1="31.176"/>
<line stroke-width="0.5" x1="11.16" stroke-linecap="round" x2="16.92" y2="31.176" fill="none" stroke="#000000" y1="28.296"/>
<line stroke-width="0.5" x1="14.04" stroke-linecap="round" x2="11.16" y2="28.296" fill="none" stroke="#000000" y1="34.056"/>
<line stroke-width="0.5" x1="14.04" stroke-linecap="round" x2="11.16" y2="32.617" fill="none" stroke="#000000" y1="34.056"/>
<line stroke-width="0.75" x1="7.56" id="connector0pin" stroke-linecap="round" x2="7.56" y2="7.416" fill="none" stroke="#787878" y1="0.216"/>
<g id="connector0terminal" fill="none" points="7.922,0,7.938,1.097,7.188,1.097,7.203,0"/>
<g transform="matrix(1, 0, 0, 1, 2.9718, 3.0734)">
<g>
<g transform="rotate(270)">
<g>
<g transform="matrix(1, 0, 0, 1, -8.8265, 5.452)">
<text font-family="'DroidSans'" font-size="3.024">B</text>
</g>
</g>
</g>
</g>
</g>
<line stroke-width="0.75" x1="29.161" id="connector1pin" stroke-linecap="round" x2="21.959" y2="21.816" fill="none" stroke="#787878" y1="21.816"/>
<g id="connector1terminal" fill="none" points="29.375,22.191,28.297,22.191,28.328,21.488,29.375,21.472"/>
<g transform="matrix(1, 0, 0, 1, 17.4785, 22.6802)">
<text font-family="'DroidSans'" font-size="3.024">R</text>
</g>
<line stroke-width="0.75" x1="7.56" id="connector2pin" stroke-linecap="round" x2="7.56" y2="36.216" fill="none" stroke="#787878" y1="43.416"/>
<g id="connector2terminal" fill="none" points="7.922,43.632,7.203,43.632,7.219,42.472,7.906,42.597"/>
<g transform="matrix(1, 0, 0, 1, 2.9718, 12.319)">
<g>
<g transform="rotate(270)">
<g>
<g transform="matrix(1, 0, 0, 1, -21.6004, 5.452)">
<text font-family="'DroidSans'" font-size="3.024">W</text>
</g>
</g>
</g>
</g>
</g>
</g>
</g></g></g><g partID='58900'><g transform='translate(37.2307,115.993)' ><g transform='matrix(-1,0,0,-1,0,0)'  ><g id="schematic">
<path stroke-width="0.9" d="M0.36,29.016c0,3.978,3.224,7.2,7.2,7.2l0,0l7.199,0l0,0c3.978,0,7.2,-3.223,7.2,-7.2l0,-14.4c0,-3.977,-3.223,-7.2,-7.2,-7.2l0,0L7.56,7.416l0,0c-3.976,0,-7.2,3.223,-7.2,7.2L0.36,29.016z" fill="#FFFFFF" stroke="#000000"/>
<line stroke-width="0.5" x1="7.56" stroke-linecap="round" x2="11.16" y2="11.016" fill="none" stroke="#000000" y1="7.416"/>
<line stroke-width="0.5" x1="21.959" stroke-linecap="round" x2="18.359" y2="18.216" fill="none" stroke="#000000" y1="21.816"/>
<line stroke-width="0.5" x1="11.16" stroke-linecap="round" x2="9.72" y2="13.896" fill="none" stroke="#000000" y1="11.016"/>
<line stroke-width="0.5" x1="15.48" stroke-linecap="round" x2="9.72" y2="13.896" fill="none" stroke="#000000" y1="11.016"/>
<line stroke-width="0.5" x1="12.6" stroke-linecap="round" x2="15.48" y2="11.016" fill="none" stroke="#000000" y1="16.776"/>
<line stroke-width="0.5" x1="18.359" stroke-linecap="round" x2="12.6" y2="16.776" fill="none" stroke="#000000" y1="13.896"/>
<line stroke-width="0.5" x1="15.48" stroke-linecap="round" x2="18.359" y2="13.896" fill="none" stroke="#000000" y1="19.656"/>
<line stroke-width="0.5" x1="15.48" stroke-linecap="round" x2="18.359" y2="18.216" fill="none" stroke="#000000" y1="19.656"/>
<line stroke-width="0.5" x1="21.959" stroke-linecap="round" x2="18.359" y2="25.416" fill="none" stroke="#000000" y1="21.816"/>
<line stroke-width="0.5" x1="7.56" stroke-linecap="round" x2="11.16" y2="32.617" fill="none" stroke="#000000" y1="36.216"/>
<line stroke-width="0.5" x1="18.359" stroke-linecap="round" x2="19.799" y2="28.296" fill="none" stroke="#000000" y1="25.416"/>
<line stroke-width="0.5" x1="14.04" stroke-linecap="round" x2="19.799" y2="28.296" fill="none" stroke="#000000" y1="25.416"/>
<line stroke-width="0.5" x1="16.92" stroke-linecap="round" x2="14.04" y2="25.416" fill="none" stroke="#000000" y1="31.176"/>
<line stroke-width="0.5" x1="11.16" stroke-linecap="round" x2="16.92" y2="31.176" fill="none" stroke="#000000" y1="28.296"/>
<line stroke-width="0.5" x1="14.04" stroke-linecap="round" x2="11.16" y2="28.296" fill="none" stroke="#000000" y1="34.056"/>
<line stroke-width="0.5" x1="14.04" stroke-linecap="round" x2="11.16" y2="32.617" fill="none" stroke="#000000" y1="34.056"/>
<line stroke-width="0.75" x1="7.56" id="connector0pin" stroke-linecap="round" x2="7.56" y2="7.416" fill="none" stroke="#787878" y1="0.216"/>
<g id="connector0terminal" fill="none" points="7.922,0,7.938,1.097,7.188,1.097,7.203,0"/>
<g transform="matrix(1, 0, 0, 1, 2.9718, 3.0734)">
<g>
<g transform="rotate(270)">
<g>
<g transform="matrix(1, 0, 0, 1, -8.8265, 5.452)">
<text font-family="'DroidSans'" font-size="3.024">B</text>
</g>
</g>
</g>
</g>
</g>
<line stroke-width="0.75" x1="29.161" id="connector1pin" stroke-linecap="round" x2="21.959" y2="21.816" fill="none" stroke="#787878" y1="21.816"/>
<g id="connector1terminal" fill="none" points="29.375,22.191,28.297,22.191,28.328,21.488,29.375,21.472"/>
<g transform="matrix(1, 0, 0, 1, 17.4785, 22.6802)">
<text font-family="'DroidSans'" font-size="3.024">R</text>
</g>
<line stroke-width="0.75" x1="7.56" id="connector2pin" stroke-linecap="round" x2="7.56" y2="36.216" fill="none" stroke="#787878" y1="43.416"/>
<g id="connector2terminal" fill="none" points="7.922,43.632,7.203,43.632,7.219,42.472,7.906,42.597"/>
<g transform="matrix(1, 0, 0, 1, 2.9718, 12.319)">
<g>
<g transform="rotate(270)">
<g>
<g transform="matrix(1, 0, 0, 1, -21.6004, 5.452)">
<text font-family="'DroidSans'" font-size="3.024">W</text>
</g>
</g>
</g>
</g>
</g>
</g>
</g></g></g><g partID='58880'><g transform='translate(101.306,15.4894)' ><g id="schematic">
<path stroke-width="0.9" d="M0.36,29.016c0,3.978,3.224,7.2,7.2,7.2l0,0l7.199,0l0,0c3.978,0,7.2,-3.223,7.2,-7.2l0,-14.4c0,-3.977,-3.223,-7.2,-7.2,-7.2l0,0L7.56,7.416l0,0c-3.976,0,-7.2,3.223,-7.2,7.2L0.36,29.016z" fill="#FFFFFF" stroke="#000000"/>
<line stroke-width="0.5" x1="7.56" stroke-linecap="round" x2="11.16" y2="11.016" fill="none" stroke="#000000" y1="7.416"/>
<line stroke-width="0.5" x1="21.959" stroke-linecap="round" x2="18.359" y2="18.216" fill="none" stroke="#000000" y1="21.816"/>
<line stroke-width="0.5" x1="11.16" stroke-linecap="round" x2="9.72" y2="13.896" fill="none" stroke="#000000" y1="11.016"/>
<line stroke-width="0.5" x1="15.48" stroke-linecap="round" x2="9.72" y2="13.896" fill="none" stroke="#000000" y1="11.016"/>
<line stroke-width="0.5" x1="12.6" stroke-linecap="round" x2="15.48" y2="11.016" fill="none" stroke="#000000" y1="16.776"/>
<line stroke-width="0.5" x1="18.359" stroke-linecap="round" x2="12.6" y2="16.776" fill="none" stroke="#000000" y1="13.896"/>
<line stroke-width="0.5" x1="15.48" stroke-linecap="round" x2="18.359" y2="13.896" fill="none" stroke="#000000" y1="19.656"/>
<line stroke-width="0.5" x1="15.48" stroke-linecap="round" x2="18.359" y2="18.216" fill="none" stroke="#000000" y1="19.656"/>
<line stroke-width="0.5" x1="21.959" stroke-linecap="round" x2="18.359" y2="25.416" fill="none" stroke="#000000" y1="21.816"/>
<line stroke-width="0.5" x1="7.56" stroke-linecap="round" x2="11.16" y2="32.617" fill="none" stroke="#000000" y1="36.216"/>
<line stroke-width="0.5" x1="18.359" stroke-linecap="round" x2="19.799" y2="28.296" fill="none" stroke="#000000" y1="25.416"/>
<line stroke-width="0.5" x1="14.04" stroke-linecap="round" x2="19.799" y2="28.296" fill="none" stroke="#000000" y1="25.416"/>
<line stroke-width="0.5" x1="16.92" stroke-linecap="round" x2="14.04" y2="25.416" fill="none" stroke="#000000" y1="31.176"/>
<line stroke-width="0.5" x1="11.16" stroke-linecap="round" x2="16.92" y2="31.176" fill="none" stroke="#000000" y1="28.296"/>
<line stroke-width="0.5" x1="14.04" stroke-linecap="round" x2="11.16" y2="28.296" fill="none" stroke="#000000" y1="34.056"/>
<line stroke-width="0.5" x1="14.04" stroke-linecap="round" x2="11.16" y2="32.617" fill="none" stroke="#000000" y1="34.056"/>
<line stroke-width="0.75" x1="7.56" id="connector0pin" stroke-linecap="round" x2="7.56" y2="7.416" fill="none" stroke="#787878" y1="0.216"/>
<g id="connector0terminal" fill="none" points="7.922,0,7.938,1.097,7.188,1.097,7.203,0"/>
<g transform="matrix(1, 0, 0, 1, 2.9718, 3.0734)">
<g>
<g transform="rotate(270)">
<g>
<g transform="matrix(1, 0, 0, 1, -8.8265, 5.452)">
<text font-family="'DroidSans'" font-size="3.024">B</text>
</g>
</g>
</g>
</g>
</g>
<line stroke-width="0.75" x1="29.161" id="connector1pin" stroke-linecap="round" x2="21.959" y2="21.816" fill="none" stroke="#787878" y1="21.816"/>
<g id="connector1terminal" fill="none" points="29.375,22.191,28.297,22.191,28.328,21.488,29.375,21.472"/>
<g transform="matrix(1, 0, 0, 1, 17.4785, 22.6802)">
<text font-family="'DroidSans'" font-size="3.024">R</text>
</g>
<line stroke-width="0.75" x1="7.56" id="connector2pin" stroke-linecap="round" x2="7.56" y2="36.216" fill="none" stroke="#787878" y1="43.416"/>
<g id="connector2terminal" fill="none" points="7.922,43.632,7.203,43.632,7.219,42.472,7.906,42.597"/>
<g transform="matrix(1, 0, 0, 1, 2.9718, 12.319)">
<g>
<g transform="rotate(270)">
<g>
<g transform="matrix(1, 0, 0, 1, -21.6004, 5.452)">
<text font-family="'DroidSans'" font-size="3.024">W</text>
</g>
</g>
</g>
</g>
</g>
</g>
</g></g><g partID='58850'><g transform='translate(22.1062,15.4894)' ><g id="schematic">
<path stroke-width="0.9" d="M0.36,29.016c0,3.978,3.224,7.2,7.2,7.2l0,0l7.199,0l0,0c3.978,0,7.2,-3.223,7.2,-7.2l0,-14.4c0,-3.977,-3.223,-7.2,-7.2,-7.2l0,0L7.56,7.416l0,0c-3.976,0,-7.2,3.223,-7.2,7.2L0.36,29.016z" fill="#FFFFFF" stroke="#000000"/>
<line stroke-width="0.5" x1="7.56" stroke-linecap="round" x2="11.16" y2="11.016" fill="none" stroke="#000000" y1="7.416"/>
<line stroke-width="0.5" x1="21.959" stroke-linecap="round" x2="18.359" y2="18.216" fill="none" stroke="#000000" y1="21.816"/>
<line stroke-width="0.5" x1="11.16" stroke-linecap="round" x2="9.72" y2="13.896" fill="none" stroke="#000000" y1="11.016"/>
<line stroke-width="0.5" x1="15.48" stroke-linecap="round" x2="9.72" y2="13.896" fill="none" stroke="#000000" y1="11.016"/>
<line stroke-width="0.5" x1="12.6" stroke-linecap="round" x2="15.48" y2="11.016" fill="none" stroke="#000000" y1="16.776"/>
<line stroke-width="0.5" x1="18.359" stroke-linecap="round" x2="12.6" y2="16.776" fill="none" stroke="#000000" y1="13.896"/>
<line stroke-width="0.5" x1="15.48" stroke-linecap="round" x2="18.359" y2="13.896" fill="none" stroke="#000000" y1="19.656"/>
<line stroke-width="0.5" x1="15.48" stroke-linecap="round" x2="18.359" y2="18.216" fill="none" stroke="#000000" y1="19.656"/>
<line stroke-width="0.5" x1="21.959" stroke-linecap="round" x2="18.359" y2="25.416" fill="none" stroke="#000000" y1="21.816"/>
<line stroke-width="0.5" x1="7.56" stroke-linecap="round" x2="11.16" y2="32.617" fill="none" stroke="#000000" y1="36.216"/>
<line stroke-width="0.5" x1="18.359" stroke-linecap="round" x2="19.799" y2="28.296" fill="none" stroke="#000000" y1="25.416"/>
<line stroke-width="0.5" x1="14.04" stroke-linecap="round" x2="19.799" y2="28.296" fill="none" stroke="#000000" y1="25.416"/>
<line stroke-width="0.5" x1="16.92" stroke-linecap="round" x2="14.04" y2="25.416" fill="none" stroke="#000000" y1="31.176"/>
<line stroke-width="0.5" x1="11.16" stroke-linecap="round" x2="16.92" y2="31.176" fill="none" stroke="#000000" y1="28.296"/>
<line stroke-width="0.5" x1="14.04" stroke-linecap="round" x2="11.16" y2="28.296" fill="none" stroke="#000000" y1="34.056"/>
<line stroke-width="0.5" x1="14.04" stroke-linecap="round" x2="11.16" y2="32.617" fill="none" stroke="#000000" y1="34.056"/>
<line stroke-width="0.75" x1="7.56" id="connector0pin" stroke-linecap="round" x2="7.56" y2="7.416" fill="none" stroke="#787878" y1="0.216"/>
<g id="connector0terminal" fill="none" points="7.922,0,7.938,1.097,7.188,1.097,7.203,0"/>
<g transform="matrix(1, 0, 0, 1, 2.9718, 3.0734)">
<g>
<g transform="rotate(270)">
<g>
<g transform="matrix(1, 0, 0, 1, -8.8265, 5.452)">
<text font-family="'DroidSans'" font-size="3.024">B</text>
</g>
</g>
</g>
</g>
</g>
<line stroke-width="0.75" x1="29.161" id="connector1pin" stroke-linecap="round" x2="21.959" y2="21.816" fill="none" stroke="#787878" y1="21.816"/>
<g id="connector1terminal" fill="none" points="29.375,22.191,28.297,22.191,28.328,21.488,29.375,21.472"/>
<g transform="matrix(1, 0, 0, 1, 17.4785, 22.6802)">
<text font-family="'DroidSans'" font-size="3.024">R</text>
</g>
<line stroke-width="0.75" x1="7.56" id="connector2pin" stroke-linecap="round" x2="7.56" y2="36.216" fill="none" stroke="#787878" y1="43.416"/>
<g id="connector2terminal" fill="none" points="7.922,43.632,7.203,43.632,7.219,42.472,7.906,42.597"/>
<g transform="matrix(1, 0, 0, 1, 2.9718, 12.319)">
<g>
<g transform="rotate(270)">
<g>
<g transform="matrix(1, 0, 0, 1, -21.6004, 5.452)">
<text font-family="'DroidSans'" font-size="3.024">W</text>
</g>
</g>
</g>
</g>
</g>
</g>
</g></g><g partID='65050'><g transform='translate(166.819,72.9414)' ><g gorn="0.1" id="schematic">
<rect width="43.198" stroke-width="0.9002" height="79.3509" gorn="0.1.0" id="part_symbol" stroke-linecap="round" x="7.2" fill="#FFFFFF" y="7.19999" stroke="#010101"/>
<g gorn="0.1.1" id="pins">
<line stroke-width="0.7" x1="50.4" gorn="0.1.1.0" id="connector15pin" stroke-linecap="round" y2="36.004" x2="57.6" fill="none" y1="36" stroke-linejoin="round" stroke="#565656"/>
<g width="0.0158008" stroke-width="0" height="0.00140878" gorn="0.1.1.1" id="connector15terminal" x="57.9423" fill="none" y="36.0013" stroke="none"/>
<line stroke-width="0.7" x1="28.8" gorn="0.1.1.2" id="connector6pin" stroke-linecap="round" y2="93.7609" x2="28.8" fill="none" y1="86.5599" stroke-linejoin="round" stroke="#565656"/>
<g width="0.0014" stroke-width="0" height="0.015802" gorn="0.1.1.3" id="connector6terminal" x="28.7993" fill="none" y="94.103" stroke="none"/>
<line stroke-width="0.7" x1="0" gorn="0.1.1.4" id="connector10pin" stroke-linecap="round" y2="28.8" x2="7.2" fill="none" y1="28.8" stroke-linejoin="round" stroke="#565656"/>
<g width="0.0158" stroke-width="0" height="0.0014" gorn="0.1.1.5" id="connector10terminal" x="-0.3579" fill="none" y="28.7993" stroke="none"/>
<line stroke-width="0.7" x1="0" gorn="0.1.1.6" id="connector9pin" stroke-linecap="round" y2="21.6" x2="7.2" fill="none" y1="21.6" stroke-linejoin="round" stroke="#565656"/>
<g width="0.0158" stroke-width="0" height="0.0014" gorn="0.1.1.7" id="connector9terminal" x="-0.3579" fill="none" y="21.5993" stroke="none"/>
<line stroke-width="0.7" x1="0" display="none" stroke-linecap="round" y2="43.2" x2="7.2" fill="none" y1="43.2" stroke-linejoin="round" stroke="#565656"/>
<line stroke-width="0.7" x1="0" gorn="0.1.1.9" id="connector11pin" stroke-linecap="round" y2="36" x2="7.2" fill="none" y1="36" stroke-linejoin="round" stroke="#565656"/>
<g width="0.0158" stroke-width="0" height="0.0014" gorn="0.1.1.10" id="connector11terminal" x="-0.3579" fill="none" y="35.9993" stroke="none"/>
<line stroke-width="0.7" x1="28.8" gorn="0.1.1.11" id="connector5pin" stroke-linecap="round" y2="0" x2="28.8" fill="none" y1="7.20099" stroke-linejoin="round" stroke="#565656"/>
<g width="0.0014" stroke-width="0" height="0.015802" gorn="0.1.1.12" id="connector5terminal" x="28.7993" fill="none" y="-0.357901" stroke="none"/>
<line stroke-width="0.7" x1="50.4" gorn="0.1.1.13" id="connector14pin" stroke-linecap="round" y2="28.8" x2="57.6" fill="none" y1="28.8" stroke-linejoin="round" stroke="#565656"/>
<g width="0.0158" stroke-width="0" height="0.0014" gorn="0.1.1.14" id="connector14terminal" x="57.9421" fill="none" y="28.7993" stroke="none"/>
<line stroke-width="0.7" x1="50.4" gorn="0.1.1.15" id="connector13pin" stroke-linecap="round" y2="21.604" x2="57.6" fill="none" y1="21.6" stroke-linejoin="round" stroke="#565656"/>
<g width="0.0158008" stroke-width="0" height="0.00140878" gorn="0.1.1.16" id="connector13terminal" x="57.9423" fill="none" y="21.6013" stroke="none"/>
<line stroke-width="0.7" x1="0" gorn="0.1.1.17" id="connector12pin" stroke-linecap="round" y2="43.2" x2="7.2" fill="none" y1="43.2" stroke-linejoin="round" stroke="#565656"/>
<g width="0.0158" stroke-width="0" height="0.0014" gorn="0.1.1.18" id="connector12terminal" x="-0.3579" fill="none" y="43.1993" stroke="none"/>
<line stroke-width="0.7" x1="50.4" gorn="0.1.1.19" id="connector16pin" stroke-linecap="round" y2="43.2" x2="57.601" fill="none" y1="43.2" stroke-linejoin="round" stroke="#565656"/>
<g width="0.015802" stroke-width="0" height="0.0014" gorn="0.1.1.20" id="connector16terminal" x="57.9431" fill="none" y="43.1993" stroke="none"/>
</g>
<g gorn="0.1.2" id="pin_numbers">
<g transform="matrix(1, 0, 0, 1, 53.3105, 20.1543)">
<g>
<g>
<g>
<text font-family="DroidSans" fill="#565656" font-size="3">4</text>
</g>
</g>
</g>
</g>
<g transform="matrix(1, 0, 0, 1, 53.1406, 27.4492)">
<g>
<g>
<g>
<text font-family="DroidSans" fill="#565656" font-size="3">6</text>
</g>
</g>
</g>
</g>
<g transform="matrix(1, 0, 0, 1, 2.7744, 20.0605)">
<g>
<g>
<g>
<text font-family="DroidSans" fill="#565656" font-size="3">3</text>
</g>
</g>
</g>
</g>
<g transform="matrix(1, 0, 0, 1, 30.1621, 3.873)">
<g>
<g>
<g>
<text font-family="DroidSans" fill="#565656" font-size="3">2</text>
</g>
</g>
</g>
</g>
<g transform="matrix(1, 0, 0, 1, 30.1621, 91.5507)">
<g>
<g>
<g>
<text font-family="DroidSans" fill="#565656" font-size="3">1</text>
</g>
</g>
</g>
</g>
<g transform="matrix(1, 0, 0, 1, 2.7744, 27.1855)">
<g>
<g>
<g>
<text font-family="DroidSans" fill="#565656" font-size="3">5</text>
</g>
</g>
</g>
</g>
<g transform="matrix(1, 0, 0, 1, 2.7744, 34.6855)">
<g>
<g>
<g>
<text font-family="DroidSans" fill="#565656" font-size="3">7</text>
</g>
</g>
</g>
</g>
<g transform="matrix(1, 0, 0, 1, 53.3105, 34.6855)">
<g>
<g>
<g>
<text font-family="DroidSans" fill="#565656" font-size="3">8</text>
</g>
</g>
</g>
</g>
<g transform="matrix(1, 0, 0, 1, 2.7744, 41.9775)">
<g>
<g>
<g>
<text font-family="DroidSans" fill="#565656" font-size="3">9</text>
</g>
</g>
</g>
</g>
<g transform="matrix(1, 0, 0, 1, 52.4355, 41.9775)">
<g>
<g>
<g>
<text font-family="DroidSans" fill="#565656" font-size="3">10</text>
</g>
</g>
</g>
</g>
</g>
<g gorn="0.1.3" id="pin_labels">
<g transform="matrix(1, 0, 0, 1, 42.6025, 37.0684)">
<g>
<g>
<g>
<text font-family="DroidSans" fill="#565656" font-size="4.5">B+</text>
</g>
</g>
</g>
</g>
<g transform="matrix(1, 0, 0, 1, 40.7119, 51.6191)">
<g>
<g>
<g>
<text font-family="DroidSans" display="none" fill="#565656" font-size="4.5">Out</text>
</g>
</g>
</g>
</g>
<g transform="matrix(1, 0, 0, 1, 24.6104, 83.7353)">
<g>
<g>
<g>
<text font-family="DroidSans" fill="#565656" font-size="4.5">Gnd</text>
</g>
</g>
</g>
</g>
<g transform="matrix(1, 0, 0, 1, 25.5117, 12.5352)">
<g>
<g>
<g>
<text font-family="DroidSans" fill="#565656" font-size="4.5">Vcc</text>
</g>
</g>
</g>
</g>
<g transform="matrix(1, 0, 0, 1, 9.2598, 22.6836)">
<g>
<g>
<g>
<text font-family="DroidSans" fill="#565656" font-size="4.5">DO/RX</text>
</g>
</g>
</g>
</g>
<g transform="matrix(1, 0, 0, 1, 9.2188, 29.9863)">
<g>
<g>
<g>
<text font-family="DroidSans" fill="#565656" font-size="4.5">CK/TX</text>
</g>
</g>
</g>
</g>
<g transform="matrix(1, 0, 0, 1, 9.2598, 37.0684)">
<g>
<g>
<g>
<text font-family="DroidSans" fill="#565656" font-size="4.5">E+</text>
</g>
</g>
</g>
</g>
<g transform="matrix(1, 0, 0, 1, 9.2188, 44.3721)">
<g>
<g>
<g>
<text font-family="DroidSans" display="none" fill="#565656" font-size="4.5">In</text>
</g>
</g>
</g>
</g>
<g transform="matrix(1, 0, 0, 1, 43.0449, 22.6836)">
<g>
<g>
<g>
<text font-family="DroidSans" fill="#565656" font-size="4.5">A+</text>
</g>
</g>
</g>
</g>
<g transform="matrix(1, 0, 0, 1, 43.0508, 29.9863)">
<g>
<g>
<g>
<text font-family="DroidSans" fill="#565656" font-size="4.5">A-</text>
</g>
</g>
</g>
</g>
<g transform="matrix(1, 0, 0, 1, 9.2188, 44.1934)">
<g>
<g>
<g>
<text font-family="DroidSans" fill="#565656" font-size="4.5">E-</text>
</g>
</g>
</g>
</g>
<g transform="matrix(1, 0, 0, 1, 42.6025, 44.1934)">
<g>
<g>
<g>
<text font-family="DroidSans" fill="#565656" font-size="4.5">B-</text>
</g>
</g>
</g>
</g>
</g>
<g transform="matrix(1, 0, 0, 1, 20.0981, 60.5038)">
<g>
<g>
<g>
<g>
<text font-family="DroidSans" x="0" fill="#010101" y="0" font-size="6">HX711</text>
<text font-family="DroidSans" x="-1.547" fill="#010101" y="7.19899" font-size="6">Module</text>
</g>
</g>
</g>
</g>
</g>
</g>
</g></g><g partID='74510'><line stroke-linecap='round' stroke='#404040' x1='108.966' y1='15.2889' x2='65.5001' y2='15.2889' stroke-width='0.699998' /></g><g partID='74400'><line stroke-linecap='round' stroke='#404040' x1='29.5278' y1='15.2889' x2='29.6688' y2='16.0378' stroke-width='0.699998' /></g><g partID='72370'><line stroke-linecap='round' stroke='#404040' x1='65.4998' y1='15.2889' x2='29.5278' y2='15.2889' stroke-width='0.699998' /></g><circle  fill="black" cx="65.4998" cy="15.2889" r="1.44" stroke-width="0" stroke="none" /><g partID='58940'><line stroke-linecap='round' stroke='#404040' x1='108.869' y1='16.0378' x2='108.966' y2='15.2889' stroke-width='0.699998' /></g><g partID='72890'><line stroke-linecap='round' stroke='#404040' x1='108.966' y1='65.8744' x2='108.869' y2='58.5414' stroke-width='0.699998' /></g><circle  fill="black" cx="108.966" cy="65.8744" r="1.44" stroke-width="0" stroke="none" /><g partID='59010'><line stroke-linecap='round' stroke='#404040' x1='108.869' y1='72.9414' x2='108.966' y2='65.8744' stroke-width='0.699998' /></g><g partID='74730'><line stroke-linecap='round' stroke='#404040' x1='29.5278' y1='116.085' x2='65.4997' y2='116.085' stroke-width='0.699998' /></g><g partID='74620'><line stroke-linecap='round' stroke='#404040' x1='108.966' y1='116.085' x2='108.868' y2='115.445' stroke-width='0.699998' /></g><g partID='71520'><line stroke-linecap='round' stroke='#404040' x1='65.4998' y1='116.085' x2='108.966' y2='116.085' stroke-width='0.699998' /></g><circle  fill="black" cx="65.4998" cy="116.085" r="1.44" stroke-width="0" stroke="none" /><g partID='59080'><line stroke-linecap='round' stroke='#404040' x1='29.6678' y1='115.445' x2='29.5277' y2='116.085' stroke-width='0.699998' /></g><g partID='71430'><line stroke-linecap='round' stroke='#404040' x1='29.5278' y1='65.8744' x2='29.6683' y2='58.5414' stroke-width='0.699998' /></g><circle  fill="black" cx="29.5278" cy="65.8744" r="1.44" stroke-width="0" stroke="none" /><g partID='59150'><line stroke-linecap='round' stroke='#404040' x1='29.6686' y1='72.9414' x2='29.528' y2='65.8744' stroke-width='0.699998' /></g><g partID='71990'><line stroke-linecap='round' stroke='#404040' x1='144.938' y1='116.085' x2='166.469' y2='116.141' stroke-width='0.699998' /></g><g partID='71880'><line stroke-linecap='round' stroke='#404040' x1='144.938' y1='144.937' x2='144.938' y2='116.085' stroke-width='0.699998' /></g><g partID='71770'><line stroke-linecap='round' stroke='#404040' x1='65.4998' y1='144.937' x2='144.938' y2='144.937' stroke-width='0.699998' /></g><g partID='71580'><line stroke-linecap='round' stroke='#404040' x1='65.4998' y1='116.085' x2='65.4998' y2='144.938' stroke-width='0.699998' /></g><g partID='72760'><line stroke-linecap='round' stroke='#404040' x1='144.938' y1='108.966' x2='166.469' y2='108.941' stroke-width='0.699998' /></g><g partID='72650'><line stroke-linecap='round' stroke='#404040' x1='144.938' y1='1.05' x2='144.938' y2='108.966' stroke-width='0.699998' /></g><g partID='72540'><line stroke-linecap='round' stroke='#404040' x1='65.4998' y1='1.05' x2='144.938' y2='1.05' stroke-width='0.699998' /></g><g partID='72430'><line stroke-linecap='round' stroke='#404040' x1='65.4998' y1='15.2889' x2='65.4998' y2='1.05' stroke-width='0.699998' /></g><g partID='73550'><line stroke-linecap='round' stroke='#404040' x1='231.121' y1='94.7269' x2='224.769' y2='94.5434' stroke-width='0.699998' /></g><g partID='73060'><line stroke-linecap='round' stroke='#404040' x1='231.121' y1='65.8744' x2='231.121' y2='94.7269' stroke-width='0.699998' /></g><g partID='72950'><line stroke-linecap='round' stroke='#404040' x1='108.966' y1='65.8744' x2='231.121' y2='65.8744' stroke-width='0.699998' /></g><g partID='74290'><line stroke-linecap='round' stroke='#404040' x1='231.121' y1='101.846' x2='224.769' y2='101.741' stroke-width='0.699998' /></g><g partID='74180'><line stroke-linecap='round' stroke='#404040' x1='231.121' y1='180.909' x2='231.121' y2='101.846' stroke-width='0.699998' /></g><g partID='74070'><line stroke-linecap='round' stroke='#404040' x1='1.05016' y1='180.909' x2='231.121' y2='180.909' stroke-width='0.699998' /></g><g partID='73960'><line stroke-linecap='round' stroke='#404040' x1='1.05016' y1='65.8744' x2='1.05016' y2='180.91' stroke-width='0.699998' /></g><g partID='73850'><line stroke-linecap='round' stroke='#404040' x1='29.5278' y1='65.8744' x2='1.05' y2='65.8744' stroke-width='0.699998' /></g><g partID='75420'><line stroke-linecap='round' stroke='#404040' x1='159.177' y1='94.7269' x2='166.468' y2='94.5414' stroke-width='0.699998' /></g><g partID='75350'><line stroke-linecap='round' stroke='#404040' x1='339.411' y1='123.205' x2='339.411' y2='22.4086' stroke-width='0.699998' /></g><g partID='75280'><line stroke-linecap='round' stroke='#404040' x1='339.411' y1='22.4083' x2='159.177' y2='22.4083' stroke-width='0.699998' /></g><g partID='75210'><line stroke-linecap='round' stroke='#404040' x1='159.177' y1='22.4083' x2='159.177' y2='94.7268' stroke-width='0.699998' /></g><g partID='75000'><line stroke-linecap='round' stroke='#404040' x1='332.501' y1='123.737' x2='339.411' y2='123.205' stroke-width='0.699998' /></g><g partID='75700'><line stroke-linecap='round' stroke='#404040' x1='346.53' y1='130.699' x2='346.53' y2='15.2894' stroke-width='0.699998' /></g><g partID='75630'><line stroke-linecap='round' stroke='#404040' x1='346.53' y1='15.2889' x2='152.057' y2='15.2889' stroke-width='0.699998' /></g><g partID='75560'><line stroke-linecap='round' stroke='#404040' x1='152.057' y1='15.2889' x2='152.057' y2='101.846' stroke-width='0.699998' /></g><g partID='75490'><line stroke-linecap='round' stroke='#404040' x1='152.057' y1='101.846' x2='166.469' y2='101.741' stroke-width='0.699998' /></g><g partID='75070'><line stroke-linecap='round' stroke='#404040' x1='332.501' y1='130.937' x2='346.53' y2='130.699' stroke-width='0.699998' /></g><g partID='76050'><line stroke-linecap='round' stroke='#404040' x1='281.706' y1='173.79' x2='195.149' y2='173.79' stroke-width='0.699998' /></g><g partID='75980'><line stroke-linecap='round' stroke='#404040' x1='195.149' y1='173.79' x2='195.618' y2='167.052' stroke-width='0.699998' /></g><g partID='75140'><line stroke-linecap='round' stroke='#404040' x1='281.705' y1='167.333' x2='281.706' y2='173.79' stroke-width='0.699998' /></g><g partID='75910'><line stroke-linecap='round' stroke='#404040' x1='274.587' y1='37.0219' x2='195.149' y2='37.0219' stroke-width='0.699998' /></g><g partID='75840'><line stroke-linecap='round' stroke='#404040' x1='195.149' y1='37.0219' x2='195.618' y2='72.5914' stroke-width='0.699998' /></g><g partID='75770'><line stroke-linecap='round' stroke='#404040' x1='274.469' y1='44.1414' x2='274.587' y2='37.0219' stroke-width='0.699998' /></g><g partID='58900' id='partLabel'><g transform='translate(7.85576,121.593)' ><g transform='matrix(-1,0,0,-1,0,0)'  ><g font-size='5' font-style='normal' font-weight='normal' fill='#000000' font-family="'DroidSans'" id='schematicLabel' fill-opacity='1' stroke='none' ><text x='0' y='3.75'>J3</text></g></g></g></g><g partID='58920' id='partLabel'><g transform='translate(87.0558,121.593)' ><g transform='matrix(-1,0,0,-1,0,0)'  ><g font-size='5' font-style='normal' font-weight='normal' fill='#000000' font-family="'DroidSans'" id='schematicLabel' fill-opacity='1' stroke='none' ><text x='0' y='3.75'>J4</text></g></g></g></g><g partID='58880' id='partLabel'><g transform='translate(130.681,9.88936)' ><g font-size='5' font-style='normal' font-weight='normal' fill='#000000' font-family="'DroidSans'" id='schematicLabel' fill-opacity='1' stroke='none' ><text x='0' y='3.75'>J2</text></g></g></g><g partID='58850' id='partLabel'><g transform='translate(51.4814,9.88936)' ><g font-size='5' font-style='normal' font-weight='normal' fill='#000000' font-family="'DroidSans'" id='schematicLabel' fill-opacity='1' stroke='none' ><text x='0' y='3.75'>J1</text></g></g></g><g partID='65050' id='partLabel'><g transform='translate(224.419,67.3414)' ><g font-size='5' font-style='normal' font-weight='normal' fill='#000000' font-family="'DroidSans'" id='schematicLabel' fill-opacity='1' stroke='none' ><text x='0' y='3.75'> </text></g></g></g><g partID='74970' id='partLabel'><g transform='translate(332.069,38.9014)' ><g font-size='5' font-style='normal' font-weight='normal' fill='#000000' font-family="'DroidSans'" id='schematicLabel' fill-opacity='1' stroke='none' ><text x='0' y='3.75'> </text></g></g></g></svg>